<svg width="18" height="17" viewBox="0 0 18 17" fill="none" xmlns="http://www.w3.org/2000/svg">
<path d="M8.58074 2.91296C8.58074 2.91296 8.23356 3.2015 7.87437 3.71549C7.44162 4.33475 6.99145 5.28126 7.11 6.44471" fill="#FD5D69"/>
<path d="M8.58074 2.91296C8.58074 2.91296 8.23356 3.2015 7.87437 3.71549M7.11 6.44471C6.99145 5.28126 7.44162 4.33475 7.87437 3.71549M7.87437 3.71549C8.29107 3.12125 8.8084 2.66124 9.3375 2.31127M9.3375 2.31127C10.269 1.6951 11.237 1.42 11.7567 1.35388C12.3642 1.32972 12.9703 1.42907 13.5383 1.64587C14.1063 1.86268 14.6245 2.19243 15.0614 2.61522C16.9509 4.46686 17.2283 7.95827 15.5205 10.0193C13.8126 12.0803 11.0125 12.9936 9.28956 15.0899C9.01041 15.4234 8.77239 15.7893 8.58067 16.1797C8.38982 15.7894 8.15271 15.4235 7.87437 15.0899C6.14886 12.9936 3.36623 12.1005 1.64072 10.0193C-0.0847896 7.93809 0.210442 4.46939 2.09993 2.61522C3.11218 1.40435 5.42735 -0.16219 9.3375 2.31127Z" stroke="#FFFDF9" stroke-linecap="round" stroke-linejoin="round"/>
</svg>
